<svg width="18" height="18" viewBox="0 0 18 18" fill="none" xmlns="http://www.w3.org/2000/svg">
<path fill-rule="evenodd" clip-rule="evenodd" d="M8.6025 15.3975C8.70797 15.5028 8.85094 15.562 9 15.562C9.14906 15.562 9.29203 15.5028 9.3975 15.3975L13.8975 10.8975C13.9528 10.846 13.9971 10.7839 14.0278 10.7149C14.0586 10.6459 14.0751 10.5714 14.0764 10.4959C14.0778 10.4204 14.0639 10.3453 14.0356 10.2753C14.0073 10.2053 13.9652 10.1416 13.9118 10.0882C13.8584 10.0348 13.7947 9.99271 13.7247 9.96441C13.6547 9.93612 13.5796 9.92223 13.5041 9.92356C13.4286 9.9249 13.3541 9.94143 13.2851 9.97217C13.2161 10.0029 13.154 10.0472 13.1025 10.1025L9.5625 13.6425V3.00001C9.5625 2.85082 9.50324 2.70775 9.39775 2.60226C9.29226 2.49677 9.14919 2.43751 9 2.43751C8.85082 2.43751 8.70774 2.49677 8.60225 2.60226C8.49676 2.70775 8.4375 2.85082 8.4375 3.00001V13.6425L4.8975 10.1025C4.846 10.0472 4.7839 10.0029 4.7149 9.97217C4.6459 9.94143 4.57142 9.9249 4.49589 9.92356C4.42037 9.92223 4.34534 9.93612 4.2753 9.96441C4.20526 9.99271 4.14164 10.0348 4.08822 10.0882C4.03481 10.1416 3.9927 10.2053 3.96441 10.2753C3.93612 10.3453 3.92222 10.4204 3.92356 10.4959C3.92489 10.5714 3.94142 10.6459 3.97216 10.7149C4.00291 10.7839 4.04724 10.846 4.1025 10.8975L8.6025 15.3975Z" fill="#CFBEB3"/>
</svg>
