<svg width="16" height="16" viewBox="0 0 16 16" fill="none" xmlns="http://www.w3.org/2000/svg">
<path fill-rule="evenodd" clip-rule="evenodd" d="M7.54116 0.690038C7.37129 0.619632 7.18922 0.583386 7.00534 0.583344H1.98371C1.7379 0.583344 1.49643 0.648052 1.28354 0.770958C1.07067 0.893864 0.893894 1.07064 0.770988 1.28351C0.648082 1.4964 0.583374 1.73787 0.583374 1.98368V7.00531C0.583416 7.18919 0.619662 7.37126 0.690068 7.54113C0.76046 7.711 0.863626 7.86535 0.993672 7.99535L7.08796 14.0896C7.2986 14.2989 7.56043 14.4494 7.84734 14.5259C8.13426 14.6025 8.43624 14.6025 8.72314 14.5259C9.01006 14.4494 9.2719 14.2989 9.48254 14.0896L14.0897 9.48251C14.299 9.27187 14.4494 9.01003 14.526 8.72311C14.6025 8.43621 14.6025 8.13423 14.526 7.84731C14.4494 7.5604 14.299 7.29857 14.0897 7.08793L7.99538 0.993642C7.86538 0.863596 7.71103 0.76043 7.54116 0.690038V0.690038Z" stroke="#C91F37" stroke-width="1.16667" stroke-linecap="round" stroke-linejoin="round"/>
</svg>
