<svg width="20" height="23" viewBox="0 0 20 23" fill="none" xmlns="http://www.w3.org/2000/svg">
<path fill-rule="evenodd" clip-rule="evenodd" d="M10.3777 21.7768C10.2513 21.8679 10.1058 21.9318 9.95125 21.9641C9.79667 21.9964 9.63665 21.9964 9.48207 21.9641C9.32749 21.9318 9.182 21.8679 9.05557 21.7768C7.00955 20.0847 0.916656 14.606 0.916656 9.34543C0.916656 7.56544 1.50497 5.83116 2.59732 4.39112C3.68964 2.95108 5.22989 1.87923 6.9973 1.3292C8.76473 0.779143 10.6686 0.779143 12.436 1.3292C14.2034 1.87923 15.7437 2.95108 16.836 4.39112C17.9283 5.83116 18.5167 7.56544 18.5167 9.34543C18.5167 14.606 12.4238 20.0847 10.3777 21.7768V21.7768Z" stroke="#C91F37" stroke-width="1.83333" stroke-linecap="round" stroke-linejoin="round"/>
<path fill-rule="evenodd" clip-rule="evenodd" d="M9.71663 6.18469C11.5392 6.18469 13.0166 7.59983 13.0166 9.34548C13.0166 11.0911 11.5392 12.5063 9.71663 12.5063C7.89409 12.5063 6.41663 11.0911 6.41663 9.34548C6.41663 7.59983 7.89409 6.18469 9.71663 6.18469V6.18469Z" stroke="#C91F37" stroke-width="1.83333" stroke-linecap="round" stroke-linejoin="round"/>
</svg>
