<svg width="22" height="21" viewBox="0 0 22 21" fill="none" xmlns="http://www.w3.org/2000/svg">
<path d="M0.916672 5.14383V3.03024C0.916672 2.65923 1.01914 2.29476 1.21378 1.97345C1.40843 1.65214 1.68838 1.38533 2.02551 1.19982C2.36264 1.01432 2.74507 0.916656 3.13435 0.916656H5.35203" stroke="#C91F37" stroke-width="1.83333" stroke-linecap="round" stroke-linejoin="round"/>
<path d="M16.4405 0.916656H18.6581C19.0474 0.916656 19.4299 1.01432 19.767 1.19982C20.1041 1.38533 20.3841 1.65214 20.5787 1.97345C20.7734 2.29476 20.8758 2.65923 20.8758 3.03024V5.14383" stroke="#C91F37" stroke-width="1.83333" stroke-linecap="round" stroke-linejoin="round"/>
<path d="M20.8758 15.7118V17.8253C20.8758 18.1964 20.7734 18.5608 20.5787 18.8821C20.3841 19.2035 20.1041 19.4703 19.767 19.6558C19.4299 19.8413 19.0474 19.9389 18.6581 19.9389H16.4405" stroke="#C91F37" stroke-width="1.83333" stroke-linecap="round" stroke-linejoin="round"/>
<path d="M5.35203 19.9389H3.13435C2.74507 19.9389 2.36264 19.8413 2.02551 19.6558C1.68838 19.4703 1.40842 19.2035 1.21378 18.8821C1.01914 18.5608 0.916672 18.1964 0.916672 17.8253V15.7118" stroke="#C91F37" stroke-width="1.83333" stroke-linecap="round" stroke-linejoin="round"/>
</svg>
