<svg width="25" height="22" viewBox="0 0 25 22" fill="none" xmlns="http://www.w3.org/2000/svg">
<path d="M8.7666 18.333C9.84234 18.3332 10.7139 19.1546 10.7139 20.167C10.7137 21.1793 9.84222 21.9998 8.7666 22C7.69083 22 6.81855 21.1794 6.81836 20.167C6.81836 19.1545 7.69072 18.333 8.7666 18.333ZM20.4551 18.333C21.5308 18.3332 22.4023 19.1546 22.4023 20.167C22.4022 21.1792 21.5306 21.9998 20.4551 22C19.3793 22 18.507 21.1794 18.5068 20.167C18.5068 19.1545 19.3792 18.333 20.4551 18.333ZM4.2207 0C4.52811 0.000133185 4.82607 0.102943 5.06055 0.290039C5.29475 0.477041 5.45052 0.736357 5.50098 1.02148L5.75488 2.44434H23.7012C23.8874 2.44427 24.0718 2.48193 24.2412 2.55469C24.4106 2.62744 24.5617 2.73382 24.6836 2.86621C24.8053 2.99855 24.8949 3.1543 24.9473 3.32227C24.9996 3.49019 25.0137 3.66661 24.9873 3.83984L23.6885 12.3955C23.6441 12.6866 23.4891 12.9529 23.2529 13.1455C23.0168 13.3381 22.7148 13.4444 22.4023 13.4443H7.70215L7.91797 14.667H21.1035C21.4479 14.667 21.7789 14.7952 22.0225 15.0244C22.266 15.2536 22.4023 15.5646 22.4023 15.8887C22.4023 16.2127 22.2659 16.5237 22.0225 16.7529C21.7789 16.9821 21.448 17.1113 21.1035 17.1113H6.81738C6.65379 17.1093 6.49117 17.0781 6.33984 17.0195L6.19531 16.9404L5.94434 16.7812L5.82129 16.6445L5.66504 16.4258L5.59473 16.2412L5.53613 16.0889L3.12109 2.44434H1.29883C0.954615 2.44434 0.624368 2.31584 0.380859 2.08691C0.137413 1.85781 0.000122083 1.54665 0 1.22266C0 0.898503 0.137305 0.58761 0.380859 0.358398C0.62441 0.129214 0.954411 0 1.29883 0H4.2207ZM7.26855 11H10.7139V8.55566H6.83594L7.26855 11ZM12.0127 11H15.9092V8.55566H12.0127V11ZM17.208 11H21.2764L21.6465 8.55566H17.208V11ZM6.62598 7.37012L6.81836 7.33301H10.7139V4.88867H6.1875L6.62598 7.37012ZM12.0127 7.33301H15.9092V4.88867H12.0127V7.33301ZM17.208 7.33301H21.834L22.2041 4.88867H17.208V7.33301Z" fill="#E3E3E3"/>
</svg>
