<svg width="25" height="25" viewBox="0 0 25 25" fill="none" xmlns="http://www.w3.org/2000/svg">
<path fill-rule="evenodd" clip-rule="evenodd" d="M12.5 11.7647C13.5208 11.7647 14.4997 11.3773 15.2215 10.6879C15.9433 9.9984 16.3488 9.06327 16.3488 8.08821C16.3488 7.11315 15.9433 6.17803 15.2215 5.48856C14.4997 4.79908 13.5208 4.41174 12.5 4.41174C11.4793 4.41174 10.5003 4.79908 9.77853 5.48856C9.05674 6.17803 8.65125 7.11315 8.65125 8.08821C8.65125 9.06327 9.05674 9.9984 9.77853 10.6879C10.5003 11.3773 11.4793 11.7647 12.5 11.7647ZM12.5 7.35292C12.7042 7.35292 12.9 7.43039 13.0443 7.56828C13.1887 7.70618 13.2698 7.8932 13.2698 8.08821C13.2698 8.28323 13.1887 8.47025 13.0443 8.60814C12.9 8.74604 12.7042 8.82351 12.5 8.82351C12.2959 8.82351 12.1001 8.74604 11.9557 8.60814C11.8114 8.47025 11.7303 8.28323 11.7303 8.08821C11.7303 7.8932 11.8114 7.70618 11.9557 7.56828C12.1001 7.43039 12.2959 7.35292 12.5 7.35292Z" fill="#A80101"/>
<path fill-rule="evenodd" clip-rule="evenodd" d="M4.80249 7.77353C4.80249 12.0574 9.12082 19.1176 12.5 19.1176C15.8793 19.1176 20.1976 12.0574 20.1976 7.77353C20.1976 3.5 16.7753 0 12.5 0C8.22482 0 4.80249 3.50147 4.80249 7.77353ZM17.1186 7.77353C17.1186 10.6471 13.7363 16.1765 12.5 16.1765C11.2638 16.1765 7.88151 10.6471 7.88151 7.77353C7.88151 5.08235 9.97524 2.94118 12.5 2.94118C15.0248 2.94118 17.1186 5.08235 17.1186 7.77353Z" fill="#A80101"/>
<path d="M18.2424 11.7647C17.8341 11.7647 17.4425 11.6098 17.1538 11.334C16.8651 11.0582 16.7029 10.6842 16.7029 10.2941C16.7029 9.90411 16.8651 9.53006 17.1538 9.25427C17.4425 8.97848 17.8341 8.82355 18.2424 8.82355C19.2517 8.82372 20.2331 9.13971 21.0366 9.72318C21.8401 10.3067 22.4214 11.1255 22.6916 12.0544L24.8315 19.4074C25.0221 20.0629 25.0515 20.7516 24.9172 21.4197C24.783 22.0878 24.4889 22.7172 24.0578 23.2587C23.6267 23.8003 23.0703 24.2392 22.4322 24.5413C21.794 24.8433 21.0914 25.0003 20.3792 25H4.61771C3.90577 24.9999 3.20351 24.8426 2.56576 24.5403C1.92801 24.238 1.37205 23.799 0.941301 23.2576C0.510549 22.7161 0.216669 22.0869 0.0826148 21.419C-0.0514392 20.7511 -0.0220376 20.0626 0.168523 19.4074L2.3069 12.0544C2.57713 11.1252 3.15864 10.3062 3.96244 9.72274C4.76625 9.13924 5.74806 8.8234 6.75763 8.82355C7.16593 8.82355 7.55751 8.97848 7.84622 9.25427C8.13494 9.53006 8.29714 9.90411 8.29714 10.2941C8.29714 10.6842 8.13494 11.0582 7.84622 11.334C7.55751 11.6098 7.16593 11.7647 6.75763 11.7647C6.42135 11.7649 6.09436 11.8702 5.82664 12.0646C5.55892 12.2589 5.3652 12.5317 5.27508 12.8412L3.13516 20.1941C3.07149 20.4128 3.06165 20.6425 3.10643 20.8654C3.15121 21.0883 3.24938 21.2983 3.39327 21.4789C3.53715 21.6595 3.72284 21.8058 3.9358 21.9064C4.14875 22.007 4.3832 22.0592 4.62079 22.0588H20.3823C20.6196 22.0587 20.8537 22.0062 21.0663 21.9054C21.2788 21.8046 21.4641 21.6582 21.6077 21.4777C21.7512 21.2971 21.8491 21.0874 21.8937 20.8647C21.9383 20.642 21.9284 20.4125 21.8648 20.1941L19.7265 12.8412C19.6363 12.5315 19.4423 12.2585 19.1743 12.0641C18.9063 11.8697 18.5789 11.7645 18.2424 11.7647Z" fill="#A80101"/>
</svg>
