<svg width="7" height="11" viewBox="0 0 7 11" fill="none" xmlns="http://www.w3.org/2000/svg">
<path fill-rule="evenodd" clip-rule="evenodd" d="M5.13459 3.89828C5.99035 4.78813 6.41824 5.76695 6.41824 6.83476C6.41824 7.62401 6.21799 8.39301 5.84621 9.03151C5.47443 9.67003 4.95018 10.1453 4.34862 10.3892C3.74706 10.6331 3.09906 10.6331 2.4975 10.3892C1.89594 10.1453 1.3717 9.67003 0.999912 9.03151C0.628127 8.39301 0.427887 7.62401 0.427887 6.83476C0.427887 6.54783 0.464962 6.26278 0.537673 5.99058C0.61039 5.71838 0.717802 5.46259 0.855772 5.23304C0.855772 5.51492 0.927285 5.78955 1.06007 6.0176C1.19284 6.24564 1.38008 6.41538 1.59492 6.50248C1.80976 6.58959 2.04119 6.58959 2.25603 6.50248C2.47087 6.41538 2.65811 6.24564 2.79088 6.0176C2.92367 5.78955 2.99518 5.51492 2.99518 5.23304C2.99518 4.16523 2.35336 3.63132 2.35336 2.56351C2.35336 1.85164 2.70992 1.13976 3.42306 0.427887C3.70832 1.85164 4.27883 3.00843 5.13459 3.89828V3.89828Z" stroke="#E6C288" stroke-width="0.833333" stroke-linecap="round" stroke-linejoin="round"/>
</svg>
