<svg width="132" height="11" viewBox="0 0 132 11" fill="none" xmlns="http://www.w3.org/2000/svg">
<path fill-rule="evenodd" clip-rule="evenodd" d="M48 4.5V5.5H0V4.5H48Z" fill="#E6C288"/>
<path fill-rule="evenodd" clip-rule="evenodd" d="M68 3.75C69 4.58334 69.5 5.5 69.5 6.5C69.5 7.23913 69.266 7.95929 68.8316 8.55724C68.3971 9.15521 67.7845 9.6003 67.0816 9.8287C66.3786 10.0571 65.6214 10.0571 64.9184 9.8287C64.2155 9.6003 63.6029 9.15521 63.1684 8.55724C62.734 7.95929 62.5 7.23913 62.5 6.5C62.5 6.23129 62.5433 5.96434 62.6283 5.70943C62.7133 5.45452 62.8388 5.21496 63 5C63 5.26397 63.0836 5.52117 63.2387 5.73473C63.3939 5.94829 63.6127 6.10725 63.8637 6.18882C64.1148 6.27039 64.3852 6.27039 64.6363 6.18882C64.8873 6.10725 65.1061 5.94829 65.2613 5.73473C65.4164 5.52117 65.5 5.26397 65.5 5C65.5 4 64.75 3.5 64.75 2.5C64.75 1.83333 65.1667 1.16666 66 0.5C66.3333 1.83333 67 2.91667 68 3.75V3.75Z" stroke="#C91F37" stroke-linecap="round" stroke-linejoin="round"/>
<path fill-rule="evenodd" clip-rule="evenodd" d="M132 4.5V5.5H84V4.5H132Z" fill="#E6C288"/>
</svg>
