<svg width="19" height="18" viewBox="0 0 19 18" fill="none" xmlns="http://www.w3.org/2000/svg">
<path fill-rule="evenodd" clip-rule="evenodd" d="M5.95456 15.5553C6.43572 15.5553 6.82579 15.9241 6.82579 16.379C6.82579 16.8339 6.43572 17.2027 5.95456 17.2027C5.47339 17.2027 5.08333 16.8339 5.08333 16.379C5.08333 15.9241 5.47339 15.5553 5.95456 15.5553V15.5553Z" stroke="white" stroke-width="1.5" stroke-linecap="round" stroke-linejoin="round"/>
<path fill-rule="evenodd" clip-rule="evenodd" d="M15.5381 15.5553C16.0193 15.5553 16.4093 15.9241 16.4093 16.379C16.4093 16.8339 16.0193 17.2027 15.5381 17.2027C15.0569 17.2027 14.6669 16.8339 14.6669 16.379C14.6669 15.9241 15.0569 15.5553 15.5381 15.5553V15.5553Z" stroke="white" stroke-width="1.5" stroke-linecap="round" stroke-linejoin="round"/>
<path d="M0.77027 0.77027H2.51272L4.83021 11.0004C4.88656 11.2488 5.00291 11.4815 5.17018 11.6804C5.33744 11.8792 5.55105 12.0387 5.79435 12.1465C6.03765 12.2544 6.30403 12.3075 6.57266 12.3019H15.0933C15.3563 12.3015 15.6157 12.2448 15.8522 12.1361C16.0887 12.0274 16.2962 11.8695 16.4589 11.6743C16.6217 11.4791 16.7357 11.2515 16.7922 11.0087L18.2297 4.8887H3.44495" stroke="white" stroke-width="1.5" stroke-linecap="round" stroke-linejoin="round"/>
</svg>
