<svg width="35" height="35" viewBox="0 0 35 35" fill="none" xmlns="http://www.w3.org/2000/svg">
<circle cx="17.5" cy="17.5" r="17.5" fill="#CC3140" fill-opacity="0.57"/>
<path d="M16.8814 7.00643C17.0455 6.8424 17.268 6.75024 17.5 6.75024C17.732 6.75024 17.9545 6.8424 18.1186 7.00643L20.7436 9.63143C20.903 9.79646 20.9912 10.0175 20.9892 10.2469C20.9872 10.4763 20.8952 10.6958 20.733 10.858C20.5707 11.0203 20.3513 11.1123 20.1218 11.1143C19.8924 11.1163 19.6714 11.0281 19.5064 10.8687L18.375 9.73731V18.1251C18.375 18.3571 18.2828 18.5797 18.1187 18.7438C17.9546 18.9079 17.7321 19.0001 17.5 19.0001C17.2679 19.0001 17.0454 18.9079 16.8813 18.7438C16.7172 18.5797 16.625 18.3571 16.625 18.1251V9.73731L15.4936 10.8687C15.3286 11.0281 15.1076 11.1163 14.8781 11.1143C14.6487 11.1123 14.4293 11.0203 14.267 10.858C14.1048 10.6958 14.0128 10.4763 14.0108 10.2469C14.0088 10.0175 14.097 9.79646 14.2564 9.63143L16.8814 7.00643ZM10.5 14.6251C10.5 14.1609 10.6844 13.7158 11.0126 13.3876C11.3408 13.0594 11.7859 12.8751 12.25 12.8751H14C14.2321 12.8751 14.4546 12.9672 14.6187 13.1313C14.7828 13.2954 14.875 13.518 14.875 13.7501C14.875 13.9821 14.7828 14.2047 14.6187 14.3688C14.4546 14.5329 14.2321 14.6251 14 14.6251H12.25V22.5001H22.75V14.6251H21C20.7679 14.6251 20.5454 14.5329 20.3813 14.3688C20.2172 14.2047 20.125 13.9821 20.125 13.7501C20.125 13.518 20.2172 13.2954 20.3813 13.1313C20.5454 12.9672 20.7679 12.8751 21 12.8751H22.75C23.2141 12.8751 23.6592 13.0594 23.9874 13.3876C24.3156 13.7158 24.5 14.1609 24.5 14.6251V22.5001C24.5 22.9642 24.3156 23.4093 23.9874 23.7375C23.6592 24.0657 23.2141 24.2501 22.75 24.2501H12.25C11.7859 24.2501 11.3408 24.0657 11.0126 23.7375C10.6844 23.4093 10.5 22.9642 10.5 22.5001V14.6251Z" fill="white"/>
</svg>
