<svg width="12" height="13" viewBox="0 0 12 13" fill="none" xmlns="http://www.w3.org/2000/svg">
<path d="M7.58331 11.6669V7.00028C7.58331 6.89789 7.55636 6.7973 7.50516 6.70862C7.45396 6.61994 7.38032 6.5463 7.29165 6.4951C7.20297 6.4439 7.10237 6.41695 6.99998 6.41695H4.66665C4.56425 6.41695 4.46366 6.4439 4.37498 6.4951C4.2863 6.5463 4.21266 6.61994 4.16146 6.70862C4.11027 6.7973 4.08331 6.89789 4.08331 7.00028V11.6669" stroke="#C91F37" stroke-width="1.16667" stroke-linecap="round" stroke-linejoin="round"/>
<path fill-rule="evenodd" clip-rule="evenodd" d="M0.691694 4.75895C0.763125 4.605 0.867275 4.46849 0.996897 4.35894L5.08023 0.858947C5.21981 0.740973 5.38514 0.657458 5.56292 0.615096C5.74069 0.572746 5.92593 0.572746 6.10371 0.615096C6.28148 0.657458 6.44682 0.740973 6.58639 0.858947L10.6697 4.35894C10.7994 4.46849 10.9035 4.605 10.9749 4.75895C11.0464 4.91289 11.0834 5.08056 11.0833 5.25027V10.5003C11.0833 10.7051 11.0294 10.9063 10.927 11.0836C10.8246 11.261 10.6773 11.4082 10.5 11.5106C10.3226 11.613 10.1214 11.6669 9.91665 11.6669H1.74998C1.54519 11.6669 1.34401 11.613 1.16665 11.5106C0.989296 11.4082 0.842012 11.261 0.739616 11.0836C0.63722 10.9063 0.583313 10.7051 0.583313 10.5003V5.25027C0.583271 5.08056 0.620262 4.91289 0.691694 4.75895V4.75895Z" stroke="#C91F37" stroke-width="1.16667" stroke-linecap="round" stroke-linejoin="round"/>
</svg>
