<svg width="19" height="19" viewBox="0 0 19 19" fill="none" xmlns="http://www.w3.org/2000/svg">
<path d="M9.49996 1.58334C6.01663 1.58334 3.16663 4.43334 3.16663 7.91668C3.16663 12.1917 8.70829 17.0208 8.94579 17.2583C9.10413 17.3375 9.34163 17.4167 9.49996 17.4167C9.65829 17.4167 9.89579 17.3375 10.0541 17.2583C10.2916 17.0208 15.8333 12.1917 15.8333 7.91668C15.8333 4.43334 12.9833 1.58334 9.49996 1.58334ZM9.49996 15.5958C7.83746 14.0125 4.74996 10.6083 4.74996 7.91668C4.74996 5.30418 6.88746 3.16668 9.49996 3.16668C12.1125 3.16668 14.25 5.30418 14.25 7.91668C14.25 10.5292 11.1625 14.0125 9.49996 15.5958ZM9.49996 4.75001C7.75829 4.75001 6.33329 6.17501 6.33329 7.91668C6.33329 9.65834 7.75829 11.0833 9.49996 11.0833C11.2416 11.0833 12.6666 9.65834 12.6666 7.91668C12.6666 6.17501 11.2416 4.75001 9.49996 4.75001ZM9.49996 9.50001C8.62913 9.50001 7.91663 8.78751 7.91663 7.91668C7.91663 7.04584 8.62913 6.33334 9.49996 6.33334C10.3708 6.33334 11.0833 7.04584 11.0833 7.91668C11.0833 8.78751 10.3708 9.50001 9.49996 9.50001Z" fill="#C91F37"/>
</svg>
