<svg width="14" height="12" viewBox="0 0 14 12" fill="none" xmlns="http://www.w3.org/2000/svg">
<path fill-rule="evenodd" clip-rule="evenodd" d="M0.675374 9.89237C0.654506 10.0199 0.67115 10.1507 0.723277 10.269C0.775404 10.3872 0.860758 10.4877 0.968972 10.5583C1.07719 10.6289 1.20359 10.6666 1.3328 10.6667H11.9995C12.1287 10.6667 12.2551 10.6292 12.3634 10.5588C12.4717 10.4883 12.5571 10.3879 12.6094 10.2697C12.6617 10.1515 12.6785 10.0207 12.6578 9.89322C12.6371 9.76569 12.5798 9.64692 12.4928 9.55136C11.6061 8.63736 10.6661 7.66602 10.6661 4.66669C10.6661 3.82197 10.3987 2.99894 9.90221 2.31555C9.4057 1.63216 8.70558 1.1235 7.90221 0.862457C7.09883 0.601427 6.23344 0.601427 5.43007 0.862457C4.6267 1.1235 3.92659 1.63216 3.43007 2.31555C2.93356 2.99894 2.66614 3.82197 2.66614 4.66669C2.66614 7.66602 1.72547 8.63736 0.840802 9.55069C0.75372 9.64615 0.696241 9.76485 0.675374 9.89237V9.89237Z" stroke="#C91F37" stroke-width="1.33333" stroke-linecap="round" stroke-linejoin="round"/>
</svg>
