<svg width="12" height="15" viewBox="0 0 12 15" fill="none" xmlns="http://www.w3.org/2000/svg">
<path fill-rule="evenodd" clip-rule="evenodd" d="M6.22663 13.967C6.15455 13.9914 6.07882 14.0033 6.00272 14.0022C5.92662 14.001 5.85128 13.9869 5.77996 13.9603C2.99996 13.0003 0.666626 11.3337 0.666626 8.00032V3.33365C0.666626 3.21663 0.697431 3.10167 0.755938 3.00032C0.814455 2.89897 0.898615 2.81482 0.999959 2.7563C1.1013 2.69779 1.21627 2.66698 1.33329 2.66698C2.66663 2.66698 4.33329 1.86698 5.49329 0.853652C5.5869 0.773678 5.69811 0.717002 5.81783 0.688251C5.93755 0.659499 6.06237 0.659499 6.18209 0.688251C6.3018 0.717002 6.41302 0.773678 6.50663 0.853652C7.67329 1.87365 9.33329 2.66698 10.6666 2.66698C10.7836 2.66698 10.8986 2.69779 11 2.7563C11.1013 2.81482 11.1855 2.89898 11.244 3.00032C11.3025 3.10167 11.3333 3.21663 11.3333 3.33365V8.00032C11.3333 11.3337 8.99996 13.0003 6.22663 13.967V13.967Z" stroke="#C91F37" stroke-width="1.33333" stroke-linecap="round" stroke-linejoin="round"/>
</svg>
