<svg width="17" height="19" viewBox="0 0 17 19" fill="none" xmlns="http://www.w3.org/2000/svg">
<path d="M16 8.125V9.90625C16 11.2228 15.4986 12.5056 14.5676 13.5707C13.6367 14.6359 12.3239 15.4287 10.8176 15.8355C9.3113 16.2423 7.68869 16.2423 6.18236 15.8355C4.67605 15.4287 3.36332 14.6359 2.43236 13.5707C1.5014 12.5056 1 11.2228 1 9.90625V8.125" stroke="#C91F37" stroke-width="2" stroke-linecap="round" stroke-linejoin="round"/>
<path fill-rule="evenodd" clip-rule="evenodd" d="M11.7143 9.90625C11.7143 11.3819 10.2752 12.5781 8.50002 12.5781C6.72482 12.5781 5.28574 11.3819 5.28574 9.90625V3.67187C5.28574 2.19624 6.72482 1 8.50002 1C10.2752 1 11.7143 2.19624 11.7143 3.67187V9.90625V9.90625Z" stroke="#C91F37" stroke-width="2" stroke-linecap="round" stroke-linejoin="round"/>
</svg>
