<svg width="14" height="15" viewBox="0 0 14 15" fill="none" xmlns="http://www.w3.org/2000/svg">
<path fill-rule="evenodd" clip-rule="evenodd" d="M0.951664 1.49879C1.08384 1.27034 1.27396 1.08081 1.50282 0.949341C1.73166 0.817869 1.99116 0.749109 2.2551 0.750014C2.51902 0.750905 2.77804 0.82142 3.00599 0.954444L12.0037 6.20294C12.2308 6.33471 12.4193 6.52375 12.5505 6.7512C12.6816 6.97865 12.7507 7.23652 12.7509 7.49904C12.7512 7.76158 12.6825 8.01957 12.5517 8.24725C12.421 8.47491 12.2328 8.66429 12.006 8.79645L3.00599 14.0464C2.77804 14.1795 2.51902 14.25 2.2551 14.2509C1.99116 14.2518 1.73166 14.183 1.50282 14.0515C1.27396 13.9201 1.08384 13.7306 0.951664 13.5021C0.819485 13.2737 0.749928 13.0144 0.75 12.7504V2.25045C0.749928 1.98652 0.819485 1.72723 0.951664 1.49879V1.49879Z" stroke="white" stroke-width="1.5" stroke-linecap="round" stroke-linejoin="round"/>
</svg>
