<svg width="12" height="13" viewBox="0 0 12 13" fill="none" xmlns="http://www.w3.org/2000/svg">
<path d="M7.58334 11.667V7.00032C7.58334 6.89793 7.55639 6.79734 7.50519 6.70866C7.45399 6.61998 7.38035 6.54634 7.29168 6.49514C7.203 6.44395 7.10241 6.41699 7.00001 6.41699H4.66668C4.56428 6.41699 4.46369 6.44395 4.37501 6.49514C4.28633 6.54634 4.21269 6.61998 4.1615 6.70866C4.1103 6.79734 4.08334 6.89793 4.08334 7.00032V11.667" stroke="#C91F37" stroke-width="1.16667" stroke-linecap="round" stroke-linejoin="round"/>
<path fill-rule="evenodd" clip-rule="evenodd" d="M0.691725 4.75899C0.763156 4.60504 0.867306 4.46853 0.996928 4.35898L5.08026 0.85899C5.21984 0.741016 5.38517 0.657501 5.56295 0.61514C5.74072 0.572789 5.92596 0.572789 6.10374 0.61514C6.28152 0.657501 6.44685 0.741016 6.58642 0.85899L10.6698 4.35898C10.7994 4.46853 10.9035 4.60504 10.975 4.75899C11.0464 4.91293 11.0834 5.08061 11.0833 5.25032V10.5003C11.0833 10.7051 11.0294 10.9063 10.927 11.0837C10.8246 11.261 10.6774 11.4083 10.5 11.5107C10.3227 11.6131 10.1215 11.667 9.91668 11.667H1.75001C1.54522 11.667 1.34404 11.6131 1.16668 11.5107C0.989326 11.4083 0.842043 11.261 0.739647 11.0837C0.637251 10.9063 0.583344 10.7051 0.583344 10.5003V5.25032C0.583302 5.08061 0.620293 4.91293 0.691725 4.75899V4.75899Z" stroke="#C91F37" stroke-width="1.16667" stroke-linecap="round" stroke-linejoin="round"/>
</svg>
