<svg width="24" height="24" viewBox="0 0 24 24" fill="none" xmlns="http://www.w3.org/2000/svg">
<path fill-rule="evenodd" clip-rule="evenodd" d="M1.11969 1.97016C1.362 1.5979 1.71052 1.28907 2.13006 1.07483C2.54958 0.860594 3.02528 0.748548 3.50913 0.750022C3.99295 0.751474 4.46778 0.86638 4.88567 1.08315L21.3803 9.63569C21.7965 9.85041 22.1421 10.1585 22.3825 10.5291C22.6229 10.8997 22.7496 11.3199 22.75 11.7477C22.7504 12.1755 22.6245 12.5959 22.3849 12.9669C22.1452 13.3379 21.8003 13.6465 21.3844 13.8619L4.88567 22.4169C4.46778 22.6336 3.99295 22.7485 3.50913 22.75C3.02528 22.7515 2.54958 22.6394 2.13006 22.4252C1.71052 22.2109 1.362 21.9021 1.11969 21.5298C0.87738 21.1576 0.749868 20.7351 0.75 20.305V3.19501C0.749868 2.76494 0.87738 2.34243 1.11969 1.97016V1.97016Z" stroke="#FEE39D" stroke-width="1.5" stroke-linecap="round" stroke-linejoin="round"/>
</svg>
