<svg width="16" height="16" viewBox="0 0 16 16" fill="none" xmlns="http://www.w3.org/2000/svg">
<path d="M8.36755 13.9673H13.9677" stroke="white" stroke-width="1.33333" stroke-linecap="round" stroke-linejoin="round"/>
<path fill-rule="evenodd" clip-rule="evenodd" d="M14.6424 2.94878C14.7076 2.53723 14.6408 2.11562 14.4517 1.74434C14.2626 1.37308 13.9608 1.07119 13.5895 0.88197C13.2183 0.692746 12.7967 0.625882 12.3852 0.690968C11.9736 0.756068 11.5932 0.949758 11.2985 1.2443L1.95607 10.589C1.79355 10.751 1.67334 10.9506 1.60606 11.17L0.681345 14.2165C0.663243 14.2771 0.661885 14.3414 0.677383 14.4026C0.692895 14.4639 0.724689 14.5198 0.769405 14.5644C0.814121 14.6091 0.870079 14.6408 0.931357 14.6562C0.992635 14.6716 1.05694 14.6701 1.11746 14.6519L4.16463 13.7279C4.38385 13.6612 4.58337 13.5418 4.74564 13.38L14.0888 4.03532C14.3834 3.74066 14.5772 3.36032 14.6424 2.94878V2.94878Z" stroke="white" stroke-width="1.33333" stroke-linecap="round" stroke-linejoin="round"/>
</svg>
