<svg width="15" height="15" viewBox="0 0 15 15" fill="none" xmlns="http://www.w3.org/2000/svg">
<path fill-rule="evenodd" clip-rule="evenodd" d="M9.15002 13.9466C9.20684 13.984 9.27374 14.0031 9.34172 14.0014C9.40971 13.9996 9.47555 13.9771 9.53038 13.9369C9.58521 13.8967 9.62643 13.8406 9.6485 13.7763L13.9818 1.10962C14.0032 1.05055 14.0072 0.986623 13.9936 0.925322C13.9799 0.864022 13.949 0.807882 13.9046 0.763477C13.8602 0.719059 13.8041 0.688215 13.7428 0.674547C13.6815 0.660879 13.6176 0.664959 13.5585 0.686295L0.891825 5.01962C0.827498 5.04169 0.771451 5.08291 0.731207 5.13774C0.690975 5.19257 0.66848 5.25841 0.666733 5.3264C0.664999 5.39438 0.684095 5.46128 0.721472 5.5181C0.75885 5.57494 0.812709 5.61897 0.875823 5.64429L6.1625 7.7643C6.32962 7.8312 6.48147 7.93126 6.60887 8.05845C6.73628 8.18562 6.83662 8.33728 6.90382 8.50429L9.02383 13.7923C9.04915 13.8554 9.0932 13.9093 9.15002 13.9466V13.9466Z" stroke="white" stroke-width="1.33333" stroke-linecap="round" stroke-linejoin="round"/>
</svg>
