<svg width="12" height="13" viewBox="0 0 12 13" fill="none" xmlns="http://www.w3.org/2000/svg">
<path fill-rule="evenodd" clip-rule="evenodd" d="M0.691694 4.75899C0.763125 4.60504 0.867275 4.46853 0.996897 4.35898L5.08023 0.85899C5.21981 0.741016 5.38514 0.657501 5.56292 0.61514C5.74069 0.572789 5.92593 0.572789 6.10371 0.61514C6.28148 0.657501 6.44682 0.741016 6.58639 0.85899L10.6697 4.35898C10.7994 4.46853 10.9035 4.60504 10.9749 4.75899C11.0464 4.91293 11.0834 5.08061 11.0833 5.25032V10.5003C11.0833 10.7051 11.0294 10.9063 10.927 11.0837C10.8246 11.261 10.6773 11.4083 10.5 11.5107C10.3226 11.6131 10.1214 11.667 9.91665 11.667H1.74998C1.54519 11.667 1.34401 11.6131 1.16665 11.5107C0.989296 11.4083 0.842012 11.261 0.739616 11.0837C0.63722 10.9063 0.583313 10.7051 0.583313 10.5003V5.25032C0.583271 5.08061 0.620262 4.91293 0.691694 4.75899V4.75899Z" stroke="#C91F37" stroke-width="1.16667" stroke-linecap="round" stroke-linejoin="round"/>
</svg>
