<svg width="14" height="13" viewBox="0 0 14 13" fill="none" xmlns="http://www.w3.org/2000/svg">
<path d="M11.0539 1.16675L12.8214 11.1137C12.8412 11.2309 12.8248 11.3513 12.7743 11.4588C12.7238 11.5663 12.6417 11.6559 12.539 11.7155C12.4362 11.7751 12.3177 11.802 12.1993 11.7924C12.0809 11.7829 11.9683 11.7374 11.8764 11.6621L7.69973 8.52725C7.56595 8.42731 7.41228 8.35725 7.2491 8.32181C7.08592 8.28636 6.91703 8.28636 6.75385 8.32181C6.59067 8.35725 6.43699 8.42731 6.30322 8.52725L2.11956 11.6609C2.02777 11.7361 1.91523 11.7815 1.79697 11.791C1.67871 11.8006 1.56034 11.7739 1.45766 11.7144C1.35498 11.655 1.27288 11.5656 1.22229 11.4583C1.17171 11.351 1.15506 11.2308 1.17456 11.1137L2.94089 1.16675" stroke="#BDBDBD" stroke-width="2.33333" stroke-linecap="round" stroke-linejoin="round"/>
</svg>
