<svg width="17" height="17" viewBox="0 0 17 17" fill="none" xmlns="http://www.w3.org/2000/svg">
<path fill-rule="evenodd" clip-rule="evenodd" d="M12.4523 5.7982C14.5952 7.114 15.6666 8.56137 15.6666 10.1403C15.6666 11.3074 15.1652 12.4444 14.2342 13.3886C13.3033 14.3328 11.9906 15.0355 10.4842 15.3961C8.97793 15.7568 7.35532 15.7568 5.84899 15.3961C4.34268 15.0355 3.02995 14.3328 2.09899 13.3886C1.16803 12.4444 0.666626 11.3074 0.666626 10.1403C0.666626 9.71604 0.759461 9.29454 0.941531 8.89204C1.12362 8.48955 1.39258 8.11131 1.73806 7.77189C1.73806 8.18869 1.91713 8.59479 2.24962 8.93199C2.5821 9.26919 3.05092 9.52018 3.5889 9.64897C4.12687 9.77778 4.70638 9.77778 5.24436 9.64897C5.78232 9.52018 6.25116 9.26919 6.58363 8.93199C6.91612 8.59479 7.09519 8.18869 7.09519 7.77189C7.09519 6.19294 5.48806 5.40346 5.48806 3.82452C5.48806 2.77189 6.38091 1.71925 8.16663 0.666626C8.88091 2.77189 10.3095 4.48242 12.4523 5.7982V5.7982Z" stroke="white" stroke-width="1.33333" stroke-linecap="round" stroke-linejoin="round"/>
</svg>
