<svg width="12" height="13" viewBox="0 0 12 13" fill="none" xmlns="http://www.w3.org/2000/svg">
<path d="M7.58333 11.667V7.00032C7.58333 6.89793 7.55637 6.79734 7.50518 6.70866C7.45398 6.61998 7.38034 6.54634 7.29166 6.49514C7.20298 6.44395 7.10239 6.41699 6.99999 6.41699H4.66666C4.56426 6.41699 4.46367 6.44395 4.37499 6.49514C4.28632 6.54634 4.21268 6.61998 4.16148 6.70866C4.11028 6.79734 4.08333 6.89793 4.08333 7.00032V11.667" stroke="#C91F37" stroke-width="1.16667" stroke-linecap="round" stroke-linejoin="round"/>
<path fill-rule="evenodd" clip-rule="evenodd" d="M0.691709 4.75899C0.763141 4.60504 0.86729 4.46853 0.996913 4.35898L5.08025 0.85899C5.21982 0.741016 5.38516 0.657501 5.56293 0.61514C5.74071 0.572789 5.92595 0.572789 6.10372 0.61514C6.2815 0.657501 6.44683 0.741016 6.58641 0.85899L10.6697 4.35898C10.7994 4.46853 10.9035 4.60504 10.9749 4.75899C11.0464 4.91293 11.0834 5.08061 11.0833 5.25032V10.5003C11.0833 10.7051 11.0294 10.9063 10.927 11.0837C10.8246 11.261 10.6773 11.4083 10.5 11.5107C10.3226 11.6131 10.1215 11.667 9.91666 11.667H1.74999C1.5452 11.667 1.34402 11.6131 1.16667 11.5107C0.989311 11.4083 0.842027 11.261 0.739631 11.0837C0.637235 10.9063 0.583328 10.7051 0.583328 10.5003V5.25032C0.583286 5.08061 0.620278 4.91293 0.691709 4.75899V4.75899Z" stroke="#C91F37" stroke-width="1.16667" stroke-linecap="round" stroke-linejoin="round"/>
</svg>
