<svg width="23" height="24" viewBox="0 0 23 24" fill="none" xmlns="http://www.w3.org/2000/svg">
<path d="M11.5 9.55556C12.0362 9.55556 12.5672 9.44491 13.0626 9.22993C13.558 9.01495 14.0082 8.69985 14.3874 8.30262C14.7665 7.90539 15.0673 7.43382 15.2725 6.91481C15.4777 6.39581 15.5833 5.83954 15.5833 5.27778C15.5833 4.71601 15.4777 4.15975 15.2725 3.64074C15.0673 3.12174 14.7665 2.65016 14.3874 2.25293C14.0082 1.8557 13.558 1.5406 13.0626 1.32563C12.5672 1.11065 12.0362 1 11.5 1C10.417 1 9.37842 1.45069 8.61265 2.25293C7.84687 3.05517 7.41667 4.14324 7.41667 5.27778C7.41667 6.41231 7.84687 7.50038 8.61265 8.30262C9.37842 9.10486 10.417 9.55556 11.5 9.55556ZM1 22.2667V23H22V22.2667C22 19.5289 22 18.16 21.4913 17.1138C21.0439 16.1939 20.33 15.446 19.452 14.9773C18.4533 14.4444 17.1467 14.4444 14.5333 14.4444H8.46667C5.85333 14.4444 4.54667 14.4444 3.548 14.9773C2.66995 15.446 1.95607 16.1939 1.50867 17.1138C1 18.16 1 19.5289 1 22.2667Z" fill="#E3E3E3" stroke="#E3E3E3" stroke-width="2" stroke-linecap="round" stroke-linejoin="round"/>
</svg>
