<svg width="22" height="22" viewBox="0 0 22 22" fill="none" xmlns="http://www.w3.org/2000/svg">
<path d="M0 2.75092C2.61205e-05 2.60034 0.0365213 2.45127 0.10735 2.31244C0.17818 2.17362 0.28192 2.04782 0.4125 1.94241C1.91104 0.732624 3.91304 0.0385865 6.01103 0.00156111C8.10901 -0.0354643 10.1453 0.587306 11.7054 1.74311L12.188 2.11453C13.191 2.83823 14.479 3.23719 15.8125 3.23719C17.146 3.23719 18.434 2.83823 19.437 2.11453L19.7794 1.85748C20.6181 1.31054 21.879 1.74764 21.9931 2.62296L22 2.75092V12.9423C22 13.0929 21.9635 13.2419 21.8926 13.3808C21.8218 13.5196 21.7181 13.6454 21.5875 13.7508C20.089 14.9606 18.087 15.6546 15.989 15.6916C13.891 15.7287 11.8547 15.1059 10.2946 13.9501L9.812 13.5787C8.84061 12.8777 7.60068 12.4807 6.30949 12.4571C5.0183 12.4335 3.7582 12.7848 2.75 13.4496V20.8689C2.74961 21.1575 2.61542 21.4351 2.37483 21.645C2.13425 21.8548 1.80544 21.9811 1.45558 21.9981C1.10572 22.015 0.761229 21.9212 0.492481 21.736C0.223733 21.5507 0.0510175 21.288 0.00962496 21.0014L0 20.8689V2.75092Z" fill="#A80101"/>
</svg>
